<?xml version="1.0" encoding="UTF-8" ?>
<!DOCTYPE svg PUBLIC "-//W3C//DTD SVG 1.1//EN" "http://www.w3.org/Graphics/SVG/1.1/DTD/svg11.dtd">
<svg width="1401pt" height="352pt" viewBox="0 0 1401 352" version="1.1" xmlns="http://www.w3.org/2000/svg">
<g id="#0052ffff">
<path fill="#0052ff" opacity="1.00" d=" M 409.07 93.69 C 417.10 92.72 425.23 93.38 433.30 93.10 C 433.28 104.98 433.39 116.86 433.27 128.74 C 441.67 124.01 451.57 121.70 461.16 123.27 C 468.77 124.25 476.24 127.98 480.72 134.35 C 484.14 138.91 485.52 144.66 485.60 150.29 C 485.72 160.92 485.72 171.56 485.75 182.20 C 488.60 182.49 491.69 182.23 494.28 183.70 C 498.30 186.26 499.06 192.42 496.06 196.03 C 493.77 198.50 490.20 198.96 487.01 198.98 C 480.98 199.04 474.96 198.98 468.93 199.01 C 465.62 198.96 461.94 198.96 459.27 196.70 C 455.63 193.65 455.80 187.33 459.46 184.37 C 461.95 181.99 465.70 182.49 468.86 182.16 C 468.87 172.10 468.91 162.03 468.85 151.97 C 468.82 148.19 467.98 143.72 464.31 141.80 C 457.71 138.27 449.08 138.74 442.82 142.83 C 439.42 145.29 435.94 147.85 433.34 151.17 C 433.17 161.52 433.34 171.88 433.29 182.24 C 436.62 182.54 440.71 182.04 443.15 184.87 C 446.45 187.93 446.32 193.93 442.84 196.81 C 439.74 199.19 435.63 198.95 431.94 199.02 C 425.60 198.91 419.26 199.19 412.92 198.86 C 409.98 198.66 406.64 197.55 405.22 194.76 C 403.41 191.34 404.05 186.64 407.21 184.22 C 409.77 182.04 413.36 182.42 416.48 182.20 C 416.45 158.15 416.47 134.11 416.48 110.06 C 412.15 109.81 406.63 110.33 403.87 106.22 C 400.53 101.70 403.40 94.39 409.07 93.69 Z" />
<path fill="#0052ff" opacity="1.00" d=" M 636.44 93.10 C 643.14 93.12 649.85 93.12 656.56 93.10 C 656.49 99.06 656.53 105.02 656.54 110.98 C 649.85 111.01 643.16 111.00 636.47 110.99 C 636.46 105.03 636.51 99.06 636.44 93.10 Z" />
<path fill="#0052ff" opacity="1.00" d=" M 141.45 98.62 C 151.43 96.49 162.17 97.92 171.10 102.93 C 183.87 110.19 193.56 123.00 196.24 137.54 C 198.68 151.15 197.33 165.99 189.92 177.93 C 183.57 188.14 173.76 196.59 162.05 199.89 C 151.13 202.84 138.95 201.56 129.21 195.66 C 117.43 188.81 108.45 177.17 105.39 163.83 C 102.12 149.57 103.57 133.81 111.15 121.11 C 117.93 110.21 128.77 101.44 141.45 98.62 M 144.28 115.14 C 134.48 117.74 126.77 125.78 123.01 135.00 C 119.74 143.72 119.61 153.54 122.38 162.41 C 125.17 170.77 131.30 178.03 139.16 182.05 C 146.71 185.90 156.14 185.52 163.45 181.27 C 171.55 176.45 177.77 168.33 179.68 159.03 C 181.63 149.39 180.85 138.82 175.83 130.20 C 169.63 119.52 156.84 111.62 144.28 115.14 Z" />
<path fill="#0052ff" opacity="1.00" d=" M 1214.63 122.20 C 1217.32 110.09 1228.35 101.03 1240.23 98.63 C 1250.93 96.57 1262.59 97.67 1272.08 103.31 C 1274.34 101.55 1276.99 99.70 1280.04 100.39 C 1283.23 100.75 1285.80 103.30 1286.41 106.42 C 1287.39 110.89 1286.84 115.52 1287.00 120.06 C 1286.92 124.08 1287.37 128.52 1284.99 132.03 C 1281.94 136.36 1274.31 136.02 1271.80 131.34 C 1270.18 127.84 1270.27 123.51 1267.40 120.64 C 1263.08 116.41 1256.92 114.43 1250.96 114.37 C 1245.65 114.33 1239.97 115.24 1235.81 118.78 C 1232.79 121.18 1230.03 124.83 1230.86 128.91 C 1231.80 133.82 1236.23 137.19 1240.87 138.40 C 1251.90 141.43 1263.50 142.47 1274.13 146.92 C 1279.41 149.19 1284.04 153.07 1286.93 158.07 C 1290.95 164.76 1291.36 173.17 1289.29 180.57 C 1286.67 189.00 1279.08 194.81 1271.19 198.05 C 1256.63 203.73 1239.82 202.04 1226.07 194.89 C 1224.20 196.92 1222.00 199.22 1218.96 198.80 C 1215.02 199.03 1211.63 195.80 1211.12 192.00 C 1210.39 187.35 1210.83 182.62 1210.71 177.93 C 1210.72 174.14 1210.78 169.66 1213.97 167.01 C 1216.99 164.73 1221.79 164.72 1224.60 167.37 C 1227.79 170.33 1227.04 175.76 1230.86 178.23 C 1241.69 186.14 1257.46 187.07 1268.87 179.84 C 1272.46 177.68 1274.96 173.27 1273.48 169.08 C 1271.98 164.10 1266.74 161.86 1262.15 160.59 C 1250.95 157.64 1238.96 156.98 1228.56 151.46 C 1218.26 146.06 1212.08 133.66 1214.63 122.20 Z" />
<path fill="#0052ff" opacity="1.00" d=" M 915.20 104.14 C 917.10 100.76 921.40 100.14 924.93 100.11 C 941.28 100.08 957.63 100.16 973.98 100.15 C 977.57 100.16 981.57 100.16 984.51 102.57 C 987.68 105.67 987.61 111.42 984.45 114.50 C 982.15 116.47 978.97 116.73 976.09 116.84 C 970.37 116.95 964.66 116.92 958.95 117.00 C 958.94 138.72 958.95 160.43 958.94 182.15 C 964.31 182.20 969.68 182.26 975.05 182.27 C 978.28 182.28 981.81 182.57 984.44 184.69 C 987.78 187.86 987.69 194.08 984.00 196.95 C 981.41 198.83 978.06 198.90 975.01 198.96 C 958.99 198.97 942.98 198.95 926.97 198.97 C 923.80 198.92 920.40 199.02 917.57 197.37 C 913.27 194.74 912.90 187.93 916.60 184.63 C 918.93 182.72 922.08 182.36 924.99 182.28 C 930.65 182.18 936.32 182.19 942.00 182.14 C 942.00 160.42 942.00 138.71 942.00 117.00 C 934.80 116.70 927.53 117.35 920.38 116.36 C 914.88 115.61 912.39 108.62 915.20 104.14 Z" />
<path fill="#0052ff" opacity="1.00" d=" M 1013.16 102.17 C 1015.98 100.05 1019.68 100.13 1023.04 100.09 C 1035.36 100.13 1047.67 100.12 1059.99 100.17 C 1067.44 100.19 1075.12 101.54 1081.56 105.48 C 1088.39 109.69 1093.95 116.39 1095.81 124.31 C 1098.33 134.31 1095.65 145.78 1087.95 152.89 C 1081.59 158.68 1073.85 163.57 1065.13 164.53 C 1057.10 165.49 1048.99 164.94 1040.92 165.09 C 1040.93 170.78 1040.92 176.46 1040.93 182.15 C 1046.29 182.21 1051.66 182.26 1057.03 182.27 C 1060.01 182.29 1063.22 182.49 1065.77 184.24 C 1069.99 187.20 1069.86 194.55 1065.47 197.28 C 1062.64 199.02 1059.20 198.91 1056.01 198.97 C 1044.67 198.95 1033.32 198.97 1021.98 198.96 C 1018.95 198.88 1015.61 198.82 1013.11 196.88 C 1009.56 193.99 1009.26 187.81 1012.84 184.82 C 1015.80 182.00 1020.23 182.44 1024.00 182.13 C 1024.00 160.41 1024.00 138.70 1024.00 116.98 C 1020.57 116.71 1016.83 117.08 1013.77 115.23 C 1009.41 112.47 1009.13 105.33 1013.16 102.17 M 1040.93 117.00 C 1040.91 127.43 1040.94 137.85 1040.91 148.28 C 1047.61 148.25 1054.33 148.71 1061.01 148.03 C 1066.60 147.47 1072.28 145.36 1076.10 141.09 C 1080.42 136.81 1081.37 129.34 1077.65 124.40 C 1074.20 119.34 1067.91 117.14 1062.01 116.96 C 1054.98 116.74 1047.95 117.01 1040.93 117.00 Z" />
<path fill="#0052ff" opacity="1.00" d=" M 1111.27 102.31 C 1113.96 100.06 1117.68 100.16 1121.00 100.08 C 1146.81 100.08 1172.61 100.03 1198.42 100.01 C 1198.30 108.66 1198.39 117.31 1198.34 125.96 C 1198.19 128.74 1198.09 131.87 1196.12 134.05 C 1192.70 138.35 1184.75 137.43 1182.74 132.18 C 1181.00 127.32 1181.81 122.04 1181.57 116.98 C 1167.38 117.02 1153.19 116.99 1139.00 117.00 C 1139.00 125.00 1139.00 133.00 1139.00 141.00 C 1143.87 141.00 1148.74 141.00 1153.62 141.00 C 1153.93 137.87 1153.51 134.27 1155.69 131.70 C 1158.57 128.04 1164.66 127.71 1167.91 131.06 C 1170.30 133.75 1170.31 137.59 1170.39 141.00 C 1170.36 146.98 1170.40 152.96 1170.37 158.95 C 1170.26 162.01 1170.15 165.47 1167.97 167.87 C 1164.46 171.71 1157.19 170.84 1154.87 166.12 C 1153.68 163.59 1153.84 160.70 1153.57 157.98 C 1148.71 157.98 1143.85 157.98 1139.00 157.98 C 1139.00 166.04 1138.99 174.09 1139.00 182.15 C 1144.99 182.23 1150.98 182.22 1156.98 182.31 C 1159.81 182.44 1162.99 182.82 1165.06 184.98 C 1168.44 188.21 1168.00 194.45 1164.12 197.12 C 1160.86 199.31 1156.73 198.87 1153.01 198.97 C 1140.78 198.80 1128.52 199.27 1116.31 198.73 C 1110.05 198.80 1106.15 190.84 1109.99 185.95 C 1112.71 182.05 1117.98 182.40 1122.18 182.12 C 1122.18 160.41 1122.18 138.70 1122.18 116.98 C 1118.54 116.65 1114.32 117.20 1111.33 114.70 C 1107.60 111.70 1107.56 105.34 1111.27 102.31 Z" />
<path fill="#0052ff" opacity="1.00" d=" M 233.74 130.36 C 246.37 119.88 267.44 119.87 279.02 131.96 C 283.59 136.75 285.72 143.40 285.88 149.94 C 286.08 160.67 285.96 171.40 286.01 182.13 C 288.76 182.59 291.98 182.68 294.01 184.91 C 297.69 188.54 296.73 195.77 291.81 197.83 C 287.10 199.70 281.90 198.82 276.97 199.02 C 272.17 198.84 266.98 199.72 262.54 197.46 C 258.23 195.02 257.64 188.44 261.00 184.97 C 263.02 182.68 266.28 182.62 269.05 182.10 C 269.05 171.40 269.24 160.70 269.13 150.00 C 269.16 146.85 267.89 143.50 265.03 141.91 C 260.25 139.08 254.30 139.04 249.00 140.11 C 242.55 141.59 237.96 146.73 233.54 151.27 C 233.61 161.58 233.64 171.89 233.62 182.20 C 236.90 182.56 240.78 182.09 243.35 184.62 C 247.50 188.26 246.38 196.24 240.96 198.03 C 235.83 199.72 230.33 198.78 225.03 199.02 C 219.76 198.78 214.24 199.75 209.16 197.93 C 204.08 195.94 202.97 188.46 206.90 184.84 C 209.34 181.97 213.48 182.62 216.82 182.15 C 216.82 168.70 216.82 155.25 216.82 141.81 C 213.85 141.43 210.37 141.19 208.40 138.60 C 204.54 134.45 206.72 126.64 212.43 125.56 C 219.43 124.40 226.58 125.23 233.64 124.98 C 233.67 126.77 233.71 128.57 233.74 130.36 Z" />
<path fill="#0052ff" opacity="1.00" d=" M 341.77 123.88 C 353.41 121.62 365.81 122.88 376.59 127.89 C 379.41 125.09 384.14 124.05 387.46 126.62 C 391.04 129.18 390.88 134.10 390.95 138.04 C 390.75 142.96 391.48 148.03 390.14 152.84 C 388.37 159.33 377.72 159.93 375.20 153.73 C 373.90 150.26 373.51 146.04 370.07 143.88 C 363.90 139.92 356.23 139.17 349.07 139.63 C 341.86 140.12 334.82 143.70 330.68 149.71 C 327.14 154.62 325.92 160.95 326.56 166.91 C 327.17 173.51 331.65 179.60 337.80 182.08 C 345.13 185.17 353.27 185.21 361.09 184.88 C 367.70 184.48 374.89 183.53 379.99 178.87 C 382.45 176.62 385.80 174.46 389.27 175.74 C 394.86 177.26 397.00 184.85 393.30 189.23 C 387.22 196.77 377.20 199.59 367.99 200.95 C 356.04 202.30 343.45 202.44 332.10 197.97 C 321.18 193.68 312.58 183.71 310.44 172.11 C 308.66 162.07 310.01 151.22 315.32 142.41 C 320.97 132.83 330.86 125.97 341.77 123.88 Z" />
<path fill="#0052ff" opacity="1.00" d=" M 525.18 126.52 C 537.40 123.38 550.44 121.17 562.89 124.35 C 570.42 126.22 577.64 131.15 580.54 138.57 C 582.36 142.79 582.22 147.49 582.24 151.99 C 582.26 162.05 582.25 172.10 582.26 182.16 C 586.63 182.43 592.26 181.92 595.01 186.15 C 598.11 190.63 595.39 197.62 589.91 198.48 C 581.81 199.61 573.57 198.77 565.41 199.01 C 565.41 198.06 565.42 196.16 565.43 195.21 C 555.18 200.14 543.57 202.68 532.21 201.41 C 522.89 200.37 513.79 195.04 509.45 186.55 C 506.46 180.62 507.43 173.38 510.85 167.84 C 515.24 160.90 522.07 155.56 529.87 152.99 C 541.36 149.15 553.76 150.14 565.54 151.90 C 565.91 147.85 565.31 142.73 560.94 141.08 C 551.83 137.93 541.99 139.99 532.84 141.93 C 528.78 142.68 524.35 144.54 520.35 142.59 C 516.32 140.72 515.01 135.38 516.64 131.48 C 518.24 128.26 522.01 127.40 525.18 126.52 M 533.68 169.82 C 529.89 171.64 525.12 174.12 524.89 178.88 C 525.52 182.81 530.17 184.07 533.54 184.69 C 544.75 186.05 556.08 182.24 565.50 176.32 C 565.46 173.93 565.46 171.54 565.49 169.15 C 555.08 167.25 543.71 165.45 533.68 169.82 Z" />
<path fill="#0052ff" opacity="1.00" d=" M 733.74 130.36 C 739.68 125.46 747.29 122.76 755.00 122.78 C 764.20 122.49 773.95 125.69 779.92 132.98 C 784.15 137.95 785.87 144.56 785.92 150.98 C 786.03 161.36 785.98 171.75 786.01 182.13 C 788.75 182.59 791.95 182.68 793.98 184.89 C 797.51 188.35 796.87 195.17 792.38 197.55 C 787.93 199.72 782.79 198.83 778.02 199.02 C 773.09 198.82 767.89 199.70 763.21 197.79 C 758.37 195.73 757.44 188.64 760.98 184.99 C 762.99 182.69 766.26 182.62 769.05 182.10 C 769.05 171.39 769.25 160.67 769.13 149.96 C 769.15 146.85 767.90 143.54 765.09 141.94 C 760.29 139.08 754.31 139.03 748.98 140.12 C 742.54 141.60 737.95 146.73 733.54 151.28 C 733.61 161.58 733.64 171.89 733.62 182.20 C 736.69 182.57 740.22 182.09 742.81 184.16 C 747.01 187.22 746.87 194.50 742.46 197.30 C 739.30 199.18 735.49 198.99 731.96 199.03 C 726.31 198.97 720.65 199.10 715.01 198.98 C 712.11 198.86 708.83 198.51 706.75 196.26 C 703.69 193.28 703.82 187.76 706.89 184.85 C 709.32 181.97 713.47 182.62 716.82 182.15 C 716.82 168.70 716.82 155.25 716.82 141.80 C 713.84 141.43 710.37 141.19 708.40 138.60 C 704.55 134.47 706.70 126.70 712.38 125.58 C 719.38 124.39 726.56 125.23 733.64 124.98 C 733.67 126.77 733.70 128.57 733.74 130.36 Z" />
<path fill="#0052ff" opacity="1.00" d=" M 617.43 132.98 C 617.25 128.40 621.62 125.14 625.91 125.13 C 636.89 124.75 647.89 125.07 658.87 124.97 C 658.88 144.04 658.87 163.12 658.88 182.19 C 665.27 182.25 671.65 182.31 678.05 182.31 C 681.27 182.34 684.84 182.47 687.47 184.61 C 690.92 187.79 690.91 194.20 686.99 197.00 C 684.41 198.88 681.10 198.95 678.05 199.01 C 660.36 199.01 642.67 198.99 624.99 199.02 C 621.28 198.92 617.16 199.32 613.95 197.10 C 609.88 194.27 609.75 187.56 613.55 184.44 C 615.88 182.52 619.10 182.44 621.98 182.32 C 628.65 182.24 635.32 182.21 642.00 182.19 C 642.00 168.72 642.00 155.25 642.00 141.78 C 636.14 141.52 630.24 142.03 624.42 141.30 C 620.40 140.82 617.03 137.10 617.43 132.98 Z" />
</g>
</svg>
