<svg width="4214" height="797" xmlns="http://www.w3.org/2000/svg" xmlns:xlink="http://www.w3.org/1999/xlink" xml:space="preserve" overflow="hidden"><defs><clipPath id="clip0"><rect x="62" y="1319" width="4214" height="797"/></clipPath></defs><g clip-path="url(#clip0)" transform="translate(-62 -1319)"><path d="M4038.35 1631.83C4046.78 1593.9 4081.32 1565.53 4118.52 1558.02 4152.03 1551.57 4188.55 1555.01 4218.27 1572.67 4225.35 1567.16 4233.65 1561.37 4243.2 1563.53 4253.19 1564.66 4261.24 1572.64 4263.15 1582.41 4266.22 1596.41 4264.5 1610.91 4265 1625.13 4264.75 1637.71 4266.16 1651.62 4258.7 1662.61 4249.15 1676.17 4225.25 1675.1 4217.39 1660.45 4212.32 1649.49 4212.6 1635.93 4203.61 1626.94 4190.08 1613.7 4170.79 1607.5 4152.13 1607.31 4135.5 1607.18 4117.71 1610.03 4104.68 1621.12 4095.22 1628.63 4086.58 1640.06 4089.18 1652.84 4092.12 1668.21 4106 1678.77 4120.53 1682.56 4155.07 1692.04 4191.4 1695.3 4224.69 1709.24 4241.23 1716.35 4255.73 1728.5 4264.78 1744.15 4277.37 1765.1 4278.65 1791.44 4272.17 1814.61 4263.96 1841.01 4240.19 1859.2 4215.48 1869.35 4169.88 1887.13 4117.24 1881.84 4074.18 1859.45 4068.32 1865.81 4061.43 1873.01 4051.91 1871.7 4039.57 1872.42 4028.96 1862.3 4027.36 1850.4 4025.07 1835.84 4026.45 1821.03 4026.07 1806.34 4026.11 1794.47 4026.29 1780.45 4036.28 1772.15 4045.74 1765.01 4060.77 1764.98 4069.57 1773.28 4079.57 1782.54 4077.22 1799.55 4089.18 1807.28 4123.1 1832.05 4172.48 1834.96 4208.22 1812.32 4219.46 1805.56 4227.29 1791.75 4222.66 1778.63 4217.96 1763.04 4201.55 1756.02 4187.17 1752.04 4152.1 1742.81 4114.55 1740.74 4081.98 1723.45 4049.72 1706.54 4030.37 1667.71 4038.35 1631.83Z" fill="#0052FF" fill-rule="evenodd"/><path d="M3097.66 1574.7C3103.64 1564.07 3117.16 1562.12 3128.26 1562.02 3179.67 1561.93 3231.08 1562.18 3282.5 1562.15 3293.79 1562.18 3306.37 1562.18 3315.61 1569.76 3325.58 1579.51 3325.36 1597.6 3315.42 1607.29 3308.19 1613.48 3298.19 1614.3 3289.13 1614.65 3271.15 1614.99 3253.19 1614.9 3235.24 1615.15 3235.2 1683.47 3235.24 1751.77 3235.2 1820.09 3252.09 1820.25 3268.98 1820.44 3285.86 1820.47 3296.02 1820.5 3307.12 1821.41 3315.39 1828.08 3325.89 1838.05 3325.61 1857.62 3314.01 1866.65 3305.86 1872.56 3295.33 1872.78 3285.74 1872.97 3235.36 1873 3185.02 1872.94 3134.67 1873 3124.7 1872.84 3114.01 1873.16 3105.11 1867.97 3091.59 1859.69 3090.43 1838.27 3102.06 1827.89 3109.39 1821.88 3119.3 1820.75 3128.45 1820.5 3146.24 1820.18 3164.07 1820.22 3181.94 1820.06 3181.94 1751.74 3181.94 1683.44 3181.94 1615.15 3159.29 1614.21 3136.43 1616.25 3113.95 1613.14 3096.65 1610.78 3088.82 1588.79 3097.66 1574.7Z" fill="#0052FF" fill-rule="evenodd"/><path d="M3405.01 1568.54C3413.88 1561.87 3425.53 1562.13 3436.1 1562 3474.87 1562.13 3513.61 1562.09 3552.38 1562.25 3575.83 1562.31 3600 1566.56 3620.27 1578.95 3641.76 1592.19 3659.26 1613.27 3665.11 1638.18 3673.04 1669.63 3664.61 1705.71 3640.37 1728.07 3620.36 1746.28 3596 1761.66 3568.56 1764.68 3543.29 1767.7 3517.77 1765.97 3492.37 1766.44 3492.4 1784.34 3492.37 1802.2 3492.4 1820.1 3509.27 1820.29 3526.17 1820.44 3543.07 1820.48 3552.45 1820.54 3562.55 1821.17 3570.57 1826.67 3583.85 1835.98 3583.45 1859.1 3569.63 1867.68 3560.72 1873.16 3549.9 1872.81 3539.86 1873 3504.17 1872.94 3468.45 1873 3432.77 1872.97 3423.23 1872.72 3412.72 1872.53 3404.85 1866.43 3393.68 1857.34 3392.74 1837.9 3404 1828.5 3413.32 1819.63 3427.26 1821.01 3439.12 1820.03 3439.12 1751.72 3439.12 1683.44 3439.12 1615.12 3428.33 1614.27 3416.56 1615.44 3406.93 1609.62 3393.21 1600.94 3392.33 1578.48 3405.01 1568.54M3492.4 1615.19C3492.34 1647.99 3492.43 1680.76 3492.34 1713.57 3513.42 1713.47 3534.57 1714.92 3555.59 1712.78 3573.19 1711.02 3591.06 1704.38 3603.08 1690.95 3616.68 1677.49 3619.67 1654 3607.96 1638.46 3597.1 1622.55 3577.31 1615.63 3558.74 1615.06 3536.62 1614.37 3514.49 1615.22 3492.4 1615.19Z" fill="#0052FF" fill-rule="evenodd"/><path d="M3713.79 1569.23C3722.22 1562.16 3733.89 1562.47 3744.29 1562.22 3825.21 1562.22 3906.09 1562.06 3987 1562 3986.62 1589.18 3986.91 1616.35 3986.75 1643.53 3986.28 1652.26 3985.97 1662.1 3979.79 1668.95 3969.07 1682.46 3944.15 1679.57 3937.84 1663.07 3932.39 1647.8 3934.93 1631.21 3934.18 1615.32 3889.69 1615.44 3845.21 1615.35 3800.72 1615.38 3800.72 1640.51 3800.72 1665.65 3800.72 1690.78 3815.99 1690.78 3831.26 1690.78 3846.55 1690.78 3847.53 1680.95 3846.21 1669.64 3853.04 1661.56 3862.07 1650.06 3881.16 1649.03 3891.35 1659.55 3898.85 1668 3898.88 1680.07 3899.13 1690.78 3899.03 1709.57 3899.16 1728.36 3899.06 1747.18 3898.72 1756.79 3898.38 1767.66 3891.54 1775.2 3880.54 1787.27 3857.75 1784.53 3850.47 1769.7 3846.74 1761.75 3847.24 1752.67 3846.4 1744.13 3831.16 1744.13 3815.93 1744.13 3800.72 1744.13 3800.72 1769.45 3800.69 1794.74 3800.72 1820.07 3819.5 1820.32 3838.28 1820.29 3857.09 1820.57 3865.96 1820.98 3875.93 1822.17 3882.42 1828.96 3893.01 1839.1 3891.64 1858.71 3879.47 1867.1 3869.25 1873.98 3856.3 1872.6 3844.64 1872.91 3806.3 1872.38 3767.87 1873.85 3729.59 1872.16 3709.97 1872.38 3697.74 1847.37 3709.78 1832 3718.3 1819.75 3734.83 1820.85 3747.99 1819.97 3747.99 1751.76 3747.99 1683.56 3747.99 1615.32 3736.58 1614.28 3723.35 1616.01 3713.98 1608.15 3702.28 1598.73 3702.16 1578.75 3713.79 1569.23Z" fill="#0052FF" fill-rule="evenodd"/><path d="M1780.82 1541.85C1806.06 1538.81 1831.61 1540.88 1856.98 1540 1856.92 1577.35 1857.26 1614.69 1856.88 1652.04 1883.29 1637.17 1914.41 1629.91 1944.55 1634.84 1968.47 1637.93 1991.95 1649.65 2006.03 1669.68 2016.79 1684.01 2021.12 1702.09 2021.37 1719.79 2021.75 1753.2 2021.75 1786.65 2021.85 1820.1 2030.8 1821.01 2040.52 1820.2 2048.66 1824.82 2061.29 1832.86 2063.68 1852.23 2054.25 1863.58 2047.06 1871.34 2035.83 1872.79 2025.81 1872.85 2006.85 1873.04 1987.93 1872.85 1968.97 1872.95 1958.57 1872.79 1947 1872.79 1938.61 1865.68 1927.17 1856.1 1927.7 1836.23 1939.21 1826.92 1947.03 1819.44 1958.82 1821.01 1968.76 1819.98 1968.79 1788.35 1968.91 1756.69 1968.72 1725.07 1968.63 1713.18 1965.99 1699.13 1954.45 1693.1 1933.71 1682 1906.58 1683.48 1886.9 1696.33 1876.22 1704.07 1865.28 1712.12 1857.1 1722.55 1856.57 1755.09 1857.1 1787.66 1856.95 1820.23 1867.41 1821.17 1880.27 1819.6 1887.94 1828.49 1898.31 1838.11 1897.9 1856.98 1886.97 1866.03 1877.22 1873.51 1864.3 1872.76 1852.7 1872.98 1832.77 1872.63 1812.85 1873.51 1792.92 1872.47 1783.68 1871.85 1773.18 1868.36 1768.71 1859.59 1763.02 1848.83 1765.04 1834.06 1774.97 1826.45 1783.02 1819.6 1794.3 1820.79 1804.11 1820.1 1804.01 1744.5 1804.08 1668.92 1804.11 1593.32 1790.5 1592.53 1773.15 1594.17 1764.47 1581.24 1753.97 1567.04 1762.99 1544.06 1780.82 1541.85Z" fill="#0052FF" fill-rule="evenodd"/><path d="M2495 1540C2515.98 1540.06 2536.99 1540.06 2558 1540 2557.78 1558.65 2557.91 1577.29 2557.94 1595.94 2536.99 1596.03 2516.04 1596 2495.09 1595.97 2495.06 1577.32 2495.22 1558.65 2495 1540Z" fill="#0052FF" fill-rule="evenodd"/><path d="M940.423 1557.99C971.769 1551.32 1005.5 1555.8 1033.55 1571.49 1073.66 1594.24 1104.09 1634.36 1112.51 1679.91 1120.17 1722.54 1115.93 1769.03 1092.66 1806.43 1072.71 1838.41 1041.9 1864.88 1005.12 1875.22 970.827 1884.46 932.571 1880.45 901.98 1861.97 864.981 1840.51 836.776 1804.05 827.165 1762.26 816.895 1717.59 821.449 1668.22 845.257 1628.44 866.551 1594.3 900.598 1566.83 940.423 1557.99M949.312 1609.74C918.532 1617.89 894.316 1643.07 882.506 1671.95 872.236 1699.27 871.828 1730.03 880.528 1757.81 889.291 1784 908.544 1806.74 933.231 1819.33 956.944 1831.39 986.562 1830.2 1009.52 1816.89 1034.96 1801.79 1054.5 1776.36 1060.5 1747.22 1066.62 1717.03 1064.17 1683.92 1048.4 1656.92 1028.93 1623.46 988.76 1598.71 949.312 1609.74Z" fill="#0052FF" fill-rule="evenodd"/><path d="M1229.72 1657.11C1269.38 1624.18 1335.55 1624.15 1371.91 1662.14 1386.26 1677.19 1392.95 1698.09 1393.46 1718.63 1394.08 1752.35 1393.71 1786.06 1393.86 1819.78 1402.5 1821.22 1412.61 1821.51 1418.99 1828.51 1430.54 1839.92 1427.53 1862.64 1412.08 1869.11 1397.29 1874.98 1380.96 1872.22 1365.47 1872.85 1350.4 1872.28 1334.1 1875.05 1320.16 1867.94 1306.62 1860.28 1304.77 1839.6 1315.32 1828.7 1321.67 1821.51 1331.9 1821.32 1340.6 1819.68 1340.6 1786.06 1341.2 1752.44 1340.85 1718.82 1340.95 1708.93 1336.96 1698.4 1327.98 1693.4 1312.97 1684.51 1294.28 1684.39 1277.64 1687.75 1257.38 1692.4 1242.97 1708.55 1229.09 1722.81 1229.31 1755.21 1229.4 1787.6 1229.34 1820 1239.64 1821.13 1251.83 1819.65 1259.9 1827.6 1272.93 1839.04 1269.41 1864.11 1252.39 1869.74 1236.28 1875.05 1219.01 1872.09 1202.36 1872.85 1185.82 1872.09 1168.48 1875.14 1152.53 1869.42 1136.57 1863.17 1133.09 1839.67 1145.43 1828.29 1153.09 1819.27 1166.09 1821.32 1176.58 1819.84 1176.58 1777.58 1176.58 1735.32 1176.58 1693.09 1167.26 1691.9 1156.33 1691.14 1150.14 1683 1138.02 1669.96 1144.87 1645.42 1162.8 1642.03 1184.78 1638.39 1207.23 1640.99 1229.4 1640.21 1229.5 1645.83 1229.62 1651.49 1229.72 1657.11Z" fill="#0052FF" fill-rule="evenodd"/><path d="M1568.97 1636.39C1605.61 1629.3 1644.65 1633.25 1678.59 1648.99 1687.47 1640.19 1702.36 1636.93 1712.81 1645 1724.08 1653.04 1723.58 1668.49 1723.8 1680.86 1723.17 1696.31 1725.47 1712.23 1721.25 1727.33 1715.68 1747.71 1682.15 1749.59 1674.22 1730.12 1670.12 1719.23 1668.89 1705.98 1658.06 1699.19 1638.64 1686.76 1614.49 1684.4 1591.95 1685.85 1569.25 1687.39 1547.09 1698.63 1534.05 1717.5 1522.91 1732.92 1519.07 1752.79 1521.08 1771.51 1523 1792.23 1537.11 1811.36 1556.47 1819.14 1579.55 1828.85 1605.17 1828.97 1629.79 1827.94 1650.6 1826.68 1673.24 1823.7 1689.3 1809.06 1697.04 1802 1707.59 1795.22 1718.51 1799.24 1736.11 1804.01 1742.85 1827.84 1731.2 1841.59 1712.06 1865.27 1680.51 1874.13 1651.52 1878.4 1613.89 1882.63 1574.26 1883.07 1538.53 1869.04 1504.15 1855.57 1477.07 1824.26 1470.33 1787.84 1464.73 1756.31 1468.98 1722.24 1485.7 1694.58 1503.48 1664.5 1534.62 1642.96 1568.97 1636.39Z" fill="#0052FF" fill-rule="evenodd"/><path d="M2145.12 1644.69C2183.58 1634.82 2224.62 1627.88 2263.81 1637.87 2287.51 1643.74 2310.23 1659.23 2319.36 1682.55 2325.09 1695.81 2324.64 1710.57 2324.71 1724.71 2324.77 1756.32 2324.74 1787.89 2324.77 1819.5 2338.52 1820.35 2356.24 1818.75 2364.9 1832.04 2374.66 1846.11 2366.09 1868.07 2348.85 1870.78 2323.35 1874.33 2297.42 1871.69 2271.74 1872.44 2271.74 1869.46 2271.77 1863.49 2271.8 1860.5 2239.54 1875.99 2203 1883.97 2167.25 1879.98 2137.92 1876.71 2109.28 1859.97 2095.62 1833.29 2086.21 1814.66 2089.26 1791.91 2100.02 1774.51 2113.84 1752.7 2135.34 1735.93 2159.88 1727.85 2196.05 1715.79 2235.07 1718.9 2272.15 1724.43 2273.31 1711.7 2271.42 1695.62 2257.67 1690.43 2229 1680.54 2198.03 1687.01 2169.23 1693.1 2156.45 1695.46 2142.51 1701.3 2129.92 1695.18 2117.24 1689.3 2113.12 1672.52 2118.25 1660.27 2123.28 1650.15 2135.15 1647.45 2145.12 1644.69M2171.88 1780.73C2159.95 1786.45 2144.93 1794.24 2144.21 1809.19 2146.19 1821.54 2160.83 1825.5 2171.44 1827.45 2206.72 1831.72 2242.38 1819.75 2272.02 1801.15 2271.9 1793.64 2271.9 1786.13 2271.99 1778.62 2239.23 1772.66 2203.44 1767 2171.88 1780.73Z" fill="#0052FF" fill-rule="evenodd"/><path d="M2800.06 1656.9C2818.78 1641.49 2842.75 1632.99 2867.05 1633.06 2896.03 1632.14 2926.75 1642.21 2945.56 1665.14 2958.89 1680.78 2964.31 1701.57 2964.47 1721.77 2964.81 1754.42 2964.66 1787.11 2964.75 1819.76 2973.38 1821.21 2983.46 1821.49 2989.86 1828.44 3000.98 1839.33 2998.97 1860.78 2984.82 1868.27 2970.8 1875.1 2954.6 1872.3 2939.58 1872.89 2924.04 1872.27 2907.66 1875.03 2892.91 1869.03 2877.66 1862.54 2874.73 1840.24 2885.89 1828.76 2892.22 1821.52 2902.52 1821.3 2911.31 1819.67 2911.31 1785.98 2911.94 1752.25 2911.57 1718.56 2911.63 1708.78 2907.69 1698.36 2898.84 1693.33 2883.71 1684.33 2864.87 1684.18 2848.08 1687.61 2827.79 1692.26 2813.33 1708.4 2799.43 1722.71 2799.65 1755.11 2799.75 1787.55 2799.68 1819.98 2809.36 1821.15 2820.48 1819.64 2828.64 1826.15 2841.87 1835.77 2841.43 1858.68 2827.54 1867.48 2817.58 1873.4 2805.58 1872.8 2794.45 1872.93 2776.65 1872.74 2758.82 1873.15 2741.05 1872.77 2731.91 1872.39 2721.58 1871.29 2715.03 1864.21 2705.38 1854.84 2705.79 1837.47 2715.47 1828.32 2723.12 1819.26 2736.2 1821.3 2746.75 1819.82 2746.75 1777.51 2746.75 1735.2 2746.75 1692.89 2737.36 1691.73 2726.43 1690.97 2720.22 1682.82 2708.09 1669.83 2714.87 1645.39 2732.76 1641.87 2754.82 1638.12 2777.44 1640.76 2799.75 1639.98 2799.84 1645.61 2799.94 1651.27 2800.06 1656.9Z" fill="#0052FF" fill-rule="evenodd"/><path d="M2434.86 1665.29C2434.29 1650.89 2448.03 1640.63 2461.52 1640.6 2496.04 1639.41 2530.62 1640.41 2565.14 1640.1 2565.17 1700.08 2565.14 1760.09 2565.17 1820.07 2585.26 1820.26 2605.32 1820.44 2625.44 1820.44 2635.56 1820.54 2646.79 1820.95 2655.06 1827.68 2665.9 1837.68 2665.87 1857.84 2653.55 1866.65 2645.44 1872.56 2635.03 1872.78 2625.44 1872.97 2569.83 1872.97 2514.21 1872.91 2458.63 1873 2446.96 1872.69 2434.01 1873.94 2423.92 1866.96 2411.12 1858.06 2410.71 1836.96 2422.66 1827.14 2429.99 1821.1 2440.11 1820.85 2449.16 1820.48 2470.13 1820.22 2491.1 1820.13 2512.1 1820.07 2512.1 1777.7 2512.1 1735.34 2512.1 1692.97 2493.68 1692.15 2475.13 1693.76 2456.83 1691.46 2444.2 1689.95 2433.6 1678.25 2434.86 1665.29Z" fill="#0052FF" fill-rule="evenodd"/><path d="M61.9999 1914.5 405.5 2113 749 1914.5 749 1517.5 405.5 1319 61.9999 1517.5Z" fill="#3D6FF3" fill-rule="evenodd"/><path d="M369.808 1366 120.192 1510.06C120.601 1514.55 120.601 1519.07 120.192 1523.56L369.399 1667.62C390.434 1652.06 419.157 1652.06 440.192 1667.62L689.399 1523.56C688.99 1519.07 688.99 1514.55 689.399 1510.06L440.601 1366C419.566 1381.55 390.844 1381.55 369.808 1366ZM713.542 1563.26 463.926 1708.95C466.701 1734.87 452.502 1759.64 428.734 1770.34L429.143 2056.82C433.179 2058.6 437.019 2060.79 440.601 2063.36L689.808 1919.31C687.034 1893.38 701.233 1868.62 725 1857.92L725 1569.81C721.01 1567.94 717.18 1565.75 713.542 1563.26ZM96.4578 1564.9C92.8753 1567.47 89.0354 1569.66 84.9999 1571.44L84.9999 1859.56C109.095 1869.89 123.445 1894.92 120.192 1920.94L369.399 2065C372.981 2062.43 376.821 2060.23 380.857 2058.45L380.857 1770.34C356.762 1760 342.412 1734.97 345.665 1708.95Z" fill="#0052FF" fill-rule="evenodd"/><path d="M405.5 1362.16 712.606 1539.78 712.606 1894.63 405.5 2072.25 98.3947 1894.63 98.3947 1539.37ZM405.5 1320 61.9999 1518.5 61.9999 1915.5 405.5 2114 749 1915.5 749 1518.5Z" fill="#5C86F5" fill-rule="evenodd"/><path d="M407.748 1783.71 402.844 1783.71C385.813 1783.76 369.468 1777 357.425 1764.94 345.382 1752.88 338.636 1736.51 338.68 1719.46L338.68 1714.54C338.636 1697.49 345.382 1681.12 357.425 1669.06 369.468 1657 385.813 1650.24 402.844 1650.29L407.748 1650.29C424.779 1650.24 441.124 1657 453.166 1669.06 465.209 1681.12 471.957 1697.49 471.911 1714.54L471.911 1719.46C471.957 1736.51 465.209 1752.88 453.166 1764.94 441.124 1777 424.779 1783.76 407.748 1783.71ZM407.748 2047.7 402.844 2047.7C379.63 2047.63 358.201 2060.16 346.854 2080.44L405.296 2114 463.738 2080.44C452.391 2060.16 430.962 2047.63 407.748 2047.7ZM749 1849.2 746.548 1849.2C729.518 1849.15 713.171 1855.91 701.131 1867.97 689.087 1880.03 682.34 1896.4 682.385 1913.45L682.385 1918.37C682.327 1929.27 685.148 1940 690.558 1949.47L749 1915.5ZM690.558 1484.94C685.192 1494.43 682.376 1505.14 682.385 1516.04L682.385 1520.96C682.34 1538.01 689.087 1554.38 701.131 1566.44 713.171 1578.5 729.518 1585.26 746.548 1585.21L749 1585.21 749 1518.5ZM405.296 1320 346.854 1353.56C358.146 1373.95 379.563 1386.63 402.844 1386.71L407.748 1386.71C430.962 1386.78 452.391 1374.25 463.738 1353.97ZM120.442 1484.53 61.9999 1518.5 61.9999 1585.21 64.452 1585.21C81.4826 1585.26 97.8283 1578.5 109.87 1566.44 121.913 1554.38 128.659 1538.01 128.616 1520.96L128.616 1516.04C128.477 1505.03 125.672 1494.22 120.442 1484.53ZM64.452 1849.2 61.9999 1849.2 61.9999 1915.5 120.442 1949.47C125.807 1939.98 128.623 1929.27 128.616 1918.37L128.616 1913.45C128.659 1896.4 121.913 1880.03 109.87 1867.97 97.8283 1855.91 81.4826 1849.15 64.452 1849.2Z" fill="#4D7BF4" fill-rule="evenodd"/><path d="M405 2116 405 1718.53 61.9999 1520 61.9999 1917.47Z" fill="#083B54" fill-rule="evenodd" fill-opacity="0.14902"/><path d="M749 1913.39 749 1517 406 1715.2 406 2112Z" fill="#083B54" fill-rule="evenodd" fill-opacity="0.0509804"/><path d="M496 1605 356 1605 356 1828 402.092 1828 402.092 1729.76 489.662 1729.76 489.662 1696.33 401.804 1696.33 401.804 1639 492.831 1639Z" fill="#FFFFFF" fill-rule="evenodd"/><path d="M647.214 1648.39 659.328 1617.57C641.446 1604.61 616.928 1600 586.354 1600 541.648 1600 505.017 1620.74 505.017 1663.37 505.017 1701.68 533.285 1716.65 561.262 1725.87L589.527 1735.37C608.851 1742 624.717 1748.34 624.717 1769.07 624.717 1788.08 608.276 1795.57 583.181 1795.57 557.8 1795.57 530.687 1788.08 515.114 1778.29L503 1811.7C523.188 1824.66 548.858 1831 583.181 1831 632.216 1831 670 1809.4 670 1763.89 670 1721.26 637.409 1707.72 604.525 1696.78L573.954 1686.7C560.684 1682.38 550.589 1676.33 550.589 1659.33 550.589 1642.05 564.724 1635.14 586.068 1635.14 612.024 1634.28 632.216 1639.17 647.214 1648.39Z" fill="#FFFFFF" fill-rule="evenodd"/><path d="M141 1717.5C141 1655.92 184.652 1606 238.5 1606 292.348 1606 336 1655.92 336 1717.5 336 1779.08 292.348 1829 238.5 1829 184.652 1829 141 1779.08 141 1717.5ZM189.75 1717.5C189.75 1752.16 211.576 1780.25 238.5 1780.25 265.424 1780.25 287.25 1752.16 287.25 1717.5 287.25 1682.84 265.424 1654.75 238.5 1654.75 211.576 1654.75 189.75 1682.84 189.75 1717.5Z" fill="#FFFFFF" fill-rule="evenodd"/></g></svg>