<svg width="4215" height="794" xmlns="http://www.w3.org/2000/svg" xmlns:xlink="http://www.w3.org/1999/xlink" xml:space="preserve" overflow="hidden"><defs><clipPath id="clip0"><rect x="108" y="68" width="4215" height="794"/></clipPath></defs><g clip-path="url(#clip0)" transform="translate(-108 -68)"><path d="M4084.4 381.063C4092.86 343.024 4127.54 314.566 4164.89 307.027 4198.54 300.557 4235.2 304.012 4265.04 321.728 4272.15 316.2 4280.48 310.389 4290.07 312.556 4300.1 313.687 4308.18 321.696 4310.1 331.497 4313.18 345.537 4311.45 360.081 4311.95 374.341 4311.7 386.969 4313.12 400.915 4305.63 411.94 4296.04 425.541 4272.05 424.473 4264.16 409.773 4259.07 398.779 4259.35 385.178 4250.32 376.163 4236.74 362.876 4217.37 356.657 4198.63 356.468 4181.94 356.343 4164.08 359.201 4151 370.321 4141.5 377.859 4132.82 389.324 4135.43 402.14 4138.39 417.563 4152.32 428.148 4166.91 431.949 4201.59 441.466 4238.06 444.733 4271.49 458.711 4288.09 465.842 4302.65 478.029 4311.73 493.735 4324.37 514.748 4325.66 541.165 4319.15 564.409 4310.91 590.889 4287.05 609.138 4262.24 619.316 4216.46 637.157 4163.6 631.849 4120.37 609.39 4114.49 615.766 4107.57 622.991 4098.02 621.671 4085.63 622.394 4074.97 612.248 4073.36 600.312 4071.07 585.706 4072.45 570.849 4072.08 556.117 4072.11 544.212 4072.3 530.14 4082.33 521.816 4091.82 514.654 4106.91 514.623 4115.75 522.947 4125.78 532.244 4123.42 549.3 4135.43 557.059 4169.48 581.905 4219.07 584.826 4254.95 562.116 4266.23 555.332 4274.1 541.479 4269.44 528.318 4264.73 512.675 4248.25 505.639 4233.82 501.65 4198.6 492.384 4160.9 490.311 4128.2 472.972 4095.81 456.01 4076.38 417.06 4084.4 381.063Z" fill-rule="evenodd"/><path d="M3143.66 324.657C3149.64 314.059 3163.16 312.116 3174.26 312.021 3225.67 311.927 3277.08 312.178 3328.5 312.147 3339.79 312.178 3352.37 312.178 3361.61 319.735 3371.58 329.455 3371.36 347.484 3361.42 357.142 3354.19 363.319 3344.19 364.134 3335.13 364.479 3317.15 364.824 3299.19 364.73 3281.24 364.98 3281.2 433.084 3281.24 501.157 3281.2 569.26 3298.09 569.417 3314.98 569.605 3331.86 569.637 3342.02 569.668 3353.12 570.578 3361.39 577.225 3371.89 587.164 3371.61 606.668 3360.01 615.667 3351.86 621.561 3341.33 621.781 3331.74 621.969 3281.36 622 3231.02 621.938 3180.67 622 3170.7 621.843 3160.01 622.157 3151.11 616.983 3137.59 608.737 3136.43 587.384 3148.06 577.037 3155.39 571.048 3165.3 569.919 3174.45 569.668 3192.24 569.354 3210.07 569.386 3227.94 569.229 3227.94 501.125 3227.94 433.053 3227.94 364.98 3205.29 364.04 3182.43 366.078 3159.95 362.974 3142.65 360.622 3134.82 338.705 3143.66 324.657Z" fill-rule="evenodd"/><path d="M3451.98 318.521C3460.82 311.875 3472.42 312.126 3482.95 312 3521.58 312.126 3560.18 312.094 3598.81 312.251 3622.17 312.314 3646.25 316.546 3666.44 328.898 3687.86 342.097 3705.29 363.103 3711.12 387.932 3719.02 419.284 3710.62 455.243 3686.48 477.534 3666.53 495.686 3642.27 511.017 3614.93 514.027 3589.75 517.037 3564.32 515.312 3539.02 515.782 3539.05 533.621 3539.02 551.429 3539.05 569.267 3555.85 569.456 3572.69 569.612 3589.53 569.644 3598.87 569.707 3608.94 570.333 3616.93 575.82 3630.16 585.1 3629.76 608.143 3615.99 616.702 3607.12 622.157 3596.33 621.812 3586.33 622 3550.77 621.938 3515.19 622 3479.63 621.969 3470.13 621.718 3459.66 621.53 3451.82 615.448 3440.69 606.387 3439.75 587.012 3450.97 577.638 3460.25 568.797 3474.14 570.177 3485.96 569.205 3485.96 501.11 3485.96 433.047 3485.96 364.952 3475.21 364.106 3463.48 365.266 3453.89 359.466 3440.22 350.813 3439.34 328.428 3451.98 318.521M3539.05 365.015C3538.99 397.714 3539.08 430.382 3538.99 463.081 3559.99 462.987 3581.06 464.429 3602.01 462.298 3619.53 460.542 3637.34 453.927 3649.32 440.54 3662.87 427.122 3665.84 403.702 3654.18 388.215 3643.36 372.351 3623.64 365.454 3605.14 364.89 3583.1 364.2 3561.06 365.046 3539.05 365.015Z" fill-rule="evenodd"/><path d="M3759.79 318.226C3768.22 311.157 3779.89 311.471 3790.29 311.22 3871.21 311.22 3952.09 311.063 4033 311 4032.62 338.176 4032.91 365.353 4032.75 392.529 4032.28 401.263 4031.97 411.097 4025.79 417.946 4015.07 431.455 3990.15 428.565 3983.84 412.071 3978.39 396.802 3980.93 380.213 3980.18 364.316 3935.69 364.442 3891.21 364.347 3846.72 364.379 3846.72 389.513 3846.72 414.647 3846.72 439.781 3861.99 439.781 3877.26 439.781 3892.55 439.781 3893.53 429.947 3892.21 418.637 3899.04 410.563 3908.07 399.064 3927.16 398.027 3937.35 408.552 3944.85 417.003 3944.88 429.068 3945.13 439.781 3945.03 458.569 3945.16 477.357 3945.06 496.176 3944.72 505.79 3944.38 516.66 3937.54 524.2 3926.54 536.265 3903.75 533.531 3896.47 518.702 3892.74 510.754 3893.24 501.674 3892.4 493.128 3877.16 493.128 3861.93 493.128 3846.72 493.128 3846.72 518.451 3846.69 543.742 3846.72 569.065 3865.5 569.316 3884.28 569.285 3903.09 569.567 3911.96 569.976 3921.93 571.17 3928.42 577.956 3939.01 588.104 3937.64 607.709 3925.47 616.097 3915.25 622.977 3902.3 621.595 3890.64 621.91 3852.3 621.375 3813.87 622.852 3775.59 621.155 3755.97 621.375 3743.74 596.367 3755.78 581.003 3764.3 568.751 3780.83 569.85 3793.99 568.971 3793.99 500.763 3793.99 432.555 3793.99 364.316 3782.58 363.279 3769.35 365.007 3759.98 357.153 3748.28 347.727 3748.16 327.746 3759.79 318.226Z" fill-rule="evenodd"/><path d="M1826.82 291.849C1852.06 288.809 1877.61 290.878 1902.98 290 1902.92 327.235 1903.26 364.469 1902.88 401.704 1929.29 386.879 1960.41 379.639 1990.55 384.56 2014.47 387.631 2037.95 399.322 2052.03 419.287 2062.79 433.579 2067.12 451.601 2067.37 469.246 2067.75 502.564 2067.75 535.912 2067.85 569.26 2076.8 570.169 2086.52 569.354 2094.66 573.961 2107.29 581.985 2109.68 601.292 2100.25 612.606 2093.06 620.348 2081.83 621.789 2071.81 621.852 2052.85 622.04 2033.93 621.852 2014.98 621.946 2004.57 621.789 1993 621.789 1984.61 614.706 1973.17 605.147 1973.7 585.339 1985.21 576.061 1993.03 568.602 2004.82 570.169 2014.76 569.135 2014.79 537.604 2014.91 506.042 2014.72 474.512 2014.63 462.665 2011.99 448.655 2000.45 442.637 1979.71 431.573 1952.58 433.046 1932.9 445.865 1922.22 453.575 1911.28 461.599 1903.1 472.005 1902.57 504.444 1903.1 536.915 1902.95 569.385 1913.41 570.325 1926.27 568.758 1933.94 577.628 1944.31 587.219 1943.9 606.024 1932.97 615.051 1923.22 622.51 1910.3 621.758 1898.7 621.977 1878.78 621.633 1858.85 622.51 1838.92 621.476 1829.68 620.849 1819.18 617.37 1814.71 608.626 1809.02 597.906 1811.04 583.176 1820.97 575.591 1829.02 568.758 1840.3 569.949 1850.11 569.26 1850.01 493.882 1850.08 418.535 1850.11 343.157 1836.5 342.373 1819.15 344.003 1810.47 331.121 1799.97 316.954 1808.99 294.043 1826.82 291.849Z" fill-rule="evenodd"/><path d="M2541 290C2561.98 290.063 2582.99 290.063 2604 290 2603.78 308.646 2603.91 327.292 2603.94 345.938 2582.99 346.032 2562.04 346.001 2541.09 345.969 2541.06 327.323 2541.22 308.646 2541 290Z" fill-rule="evenodd"/><path d="M986.423 307.001C1017.77 300.309 1051.5 304.802 1079.55 320.544 1119.66 343.356 1150.09 383.606 1158.51 429.292 1166.17 472.056 1161.93 518.685 1138.66 556.202 1118.71 588.283 1087.9 614.834 1051.12 625.203 1016.83 634.472 978.571 630.45 947.98 611.912 910.981 590.388 882.776 553.814 873.165 511.898 862.895 467.092 867.449 417.572 891.257 377.667 912.551 343.419 946.598 315.862 986.423 307.001M995.312 358.909C964.532 367.079 940.316 392.341 928.506 421.311 918.236 448.711 917.828 479.566 926.528 507.436 935.291 533.704 954.544 556.516 979.231 569.148 1002.94 581.245 1032.56 580.051 1055.52 566.697 1080.96 551.552 1100.5 526.038 1106.5 496.816 1112.62 466.526 1110.17 433.314 1094.4 406.229 1074.93 372.671 1034.76 347.849 995.312 358.909Z" fill-rule="evenodd"/><path d="M1276.72 407.013C1316.38 374.221 1382.55 374.19 1418.91 412.019 1433.26 427.006 1439.95 447.814 1440.46 468.278 1441.08 501.851 1440.71 535.425 1440.86 568.999 1449.5 570.438 1459.61 570.72 1465.99 577.697 1477.54 589.055 1474.53 611.678 1459.08 618.124 1444.29 623.975 1427.96 621.221 1412.47 621.847 1397.4 621.284 1381.1 624.037 1367.16 616.966 1353.62 609.331 1351.77 588.743 1362.32 577.885 1368.67 570.72 1378.9 570.532 1387.6 568.905 1387.6 535.425 1388.2 501.945 1387.85 468.465 1387.95 458.609 1383.96 448.127 1374.98 443.152 1359.97 434.297 1341.28 434.172 1324.64 437.52 1304.38 442.151 1289.97 458.233 1276.09 472.439 1276.31 504.698 1276.4 536.958 1276.34 569.218 1286.64 570.344 1298.83 568.874 1306.9 576.79 1319.93 588.179 1316.41 613.149 1299.39 618.749 1283.28 624.037 1266.01 621.096 1249.36 621.847 1232.82 621.096 1215.48 624.131 1199.53 618.436 1183.57 612.21 1180.09 588.805 1192.43 577.478 1200.09 568.498 1213.09 570.532 1223.58 569.062 1223.58 526.977 1223.58 484.892 1223.58 442.839 1214.26 441.65 1203.33 440.899 1197.14 432.795 1185.02 419.81 1191.86 395.373 1209.8 391.993 1231.78 388.364 1254.23 390.961 1276.4 390.178 1276.5 395.779 1276.62 401.412 1276.72 407.013Z" fill-rule="evenodd"/><path d="M1615.59 386.394C1652.1 379.297 1691 383.253 1724.81 398.985 1733.65 390.193 1748.49 386.927 1758.9 394.997 1770.13 403.036 1769.63 418.485 1769.85 430.856 1769.22 446.306 1771.51 462.225 1767.31 477.329 1761.76 497.708 1728.35 499.592 1720.45 480.123 1716.37 469.228 1715.15 455.977 1704.36 449.194 1685.01 436.76 1660.95 434.405 1638.49 435.849 1615.88 437.388 1593.79 448.629 1580.81 467.501 1569.71 482.918 1565.88 502.795 1567.89 521.509 1569.8 542.234 1583.85 561.356 1603.14 569.144 1626.13 578.846 1651.66 578.972 1676.19 577.936 1696.92 576.68 1719.48 573.697 1735.47 559.064 1743.19 551.999 1753.7 545.216 1764.58 549.236 1782.11 554.008 1788.83 577.842 1777.22 591.595 1758.15 615.271 1726.72 624.125 1697.83 628.396 1660.35 632.635 1620.86 633.075 1585.26 619.039 1551.01 605.568 1524.04 574.262 1517.32 537.837 1511.74 506.312 1515.98 472.242 1532.63 444.579 1550.35 414.497 1581.37 392.956 1615.59 386.394Z" fill-rule="evenodd"/><path d="M2191.93 394.687C2230.25 384.822 2271.14 377.878 2310.18 387.869 2333.8 393.744 2356.44 409.234 2365.53 432.547 2371.24 445.805 2370.8 460.572 2370.87 474.71 2370.93 506.317 2370.9 537.893 2370.93 569.501 2384.63 570.349 2402.29 568.746 2410.91 582.036 2420.63 596.112 2412.1 618.073 2394.92 620.776 2369.52 624.326 2343.68 621.687 2318.09 622.441 2318.09 619.456 2318.12 613.486 2318.15 610.502 2286.01 625.991 2249.6 633.971 2213.97 629.981 2184.74 626.714 2156.21 609.967 2142.6 583.293 2133.22 564.662 2136.26 541.915 2146.99 524.509 2160.75 502.704 2182.17 485.927 2206.63 477.852 2242.67 465.788 2281.55 468.898 2318.49 474.428 2319.66 461.703 2317.77 445.617 2304.07 440.433 2275.5 430.536 2244.64 437.008 2215.95 443.103 2203.22 445.459 2189.32 451.303 2176.78 445.177 2164.14 439.302 2160.03 422.524 2165.15 410.271 2170.16 400.154 2181.99 397.452 2191.93 394.687M2218.58 530.73C2206.7 536.448 2191.74 544.24 2191.02 559.195 2192.99 571.543 2207.57 575.501 2218.14 577.449 2253.3 581.722 2288.83 569.752 2318.37 551.152 2318.24 543.643 2318.24 536.134 2318.34 528.625 2285.69 522.655 2250.04 517 2218.58 530.73Z" fill-rule="evenodd"/><path d="M2846.74 406.802C2865.39 391.452 2889.29 382.994 2913.5 383.056 2942.38 382.148 2973 392.173 2991.74 415.01 3005.02 430.58 3010.42 451.287 3010.58 471.399 3010.92 503.917 3010.77 536.466 3010.86 568.983 3019.46 570.424 3029.51 570.706 3035.89 577.629 3046.97 588.469 3044.96 609.834 3030.86 617.29 3016.89 624.088 3000.75 621.3 2985.77 621.895 2970.3 621.268 2953.97 624.025 2939.27 618.042 2924.08 611.588 2921.16 589.377 2932.27 577.943 2938.58 570.738 2948.85 570.518 2957.61 568.889 2957.61 535.338 2958.24 501.755 2957.86 468.204 2957.92 458.461 2954 448.091 2945.18 443.079 2930.11 434.12 2911.33 433.963 2894.59 437.378 2874.37 442.014 2859.96 458.085 2846.12 472.339 2846.34 504.606 2846.43 536.904 2846.37 569.203 2856.01 570.362 2867.09 568.858 2875.22 575.343 2888.41 584.929 2887.97 607.735 2874.12 616.507 2864.2 622.396 2852.24 621.801 2841.16 621.926 2823.42 621.738 2805.64 622.145 2787.94 621.769 2778.83 621.394 2768.53 620.297 2762 613.249 2752.39 603.913 2752.8 586.62 2762.44 577.504 2770.07 568.482 2783.1 570.518 2793.62 569.046 2793.62 526.911 2793.62 484.776 2793.62 442.641 2784.26 441.481 2773.37 440.73 2767.18 432.616 2755.09 419.678 2761.84 395.337 2779.68 391.828 2801.66 388.1 2824.2 390.731 2846.43 389.948 2846.52 395.556 2846.62 401.195 2846.74 406.802Z" fill-rule="evenodd"/><path d="M2480.86 415.184C2480.29 400.841 2494.03 390.632 2507.52 390.6 2542.04 389.41 2576.62 390.413 2611.14 390.1 2611.17 449.821 2611.14 509.573 2611.17 569.294 2631.26 569.482 2651.32 569.67 2671.44 569.67 2681.56 569.764 2692.79 570.171 2701.06 576.872 2711.9 586.831 2711.87 606.905 2699.55 615.674 2691.44 621.562 2681.03 621.781 2671.44 621.969 2615.83 621.969 2560.21 621.906 2504.63 622 2492.96 621.687 2480.01 622.939 2469.92 615.987 2457.12 607.125 2456.71 586.111 2468.66 576.34 2475.99 570.328 2486.11 570.077 2495.16 569.701 2516.13 569.451 2537.1 569.357 2558.1 569.294 2558.1 527.11 2558.1 484.927 2558.1 442.743 2539.68 441.929 2521.13 443.526 2502.83 441.24 2490.2 439.736 2479.6 428.087 2480.86 415.184Z" fill-rule="evenodd"/><path d="M108 663.5 451.5 862 795 663.5 795 266.5 451.5 68.0001 108 266.5Z" fill-rule="evenodd"/><path d="M542 354 402 354 402 577 448.092 577 448.092 478.756 535.662 478.756 535.662 445.333 447.803 445.333 447.803 387.998 538.831 387.998Z" fill="#FFFFFF" fill-rule="evenodd"/><path d="M693.214 398.389 705.328 367.57C687.446 354.609 662.929 350 632.354 350 587.648 350 551.017 370.738 551.017 413.366 551.017 451.675 579.285 466.653 607.262 475.87L635.527 485.373C654.851 491.999 670.717 498.336 670.717 519.073 670.717 538.082 654.276 545.571 629.181 545.571 603.8 545.571 576.687 538.082 561.114 528.291L549 561.703C569.188 574.663 594.858 581 629.181 581 678.216 581 716 559.397 716 513.888 716 471.261 683.409 457.724 650.525 446.778L619.954 436.698C606.684 432.378 596.59 426.329 596.59 409.335 596.59 392.052 610.724 385.14 632.068 385.14 658.024 384.276 678.216 389.172 693.214 398.389Z" fill="#FFFFFF" fill-rule="evenodd"/><path d="M187 467.5C187 405.92 230.876 356 285 356 339.124 356 383 405.92 383 467.5 383 529.08 339.124 579 285 579 230.876 579 187 529.08 187 467.5ZM236 467.5C236 502.018 257.938 530 285 530 312.062 530 334 502.018 334 467.5 334 432.982 312.062 405 285 405 257.938 405 236 432.982 236 467.5Z" fill="#FFFFFF" fill-rule="evenodd"/></g></svg>