<svg width="4214" height="793" xmlns="http://www.w3.org/2000/svg" xmlns:xlink="http://www.w3.org/1999/xlink" xml:space="preserve" overflow="hidden"><defs><clipPath id="clip0"><rect x="222" y="1392" width="4214" height="793"/></clipPath></defs><g clip-path="url(#clip0)" transform="translate(-222 -1392)"><path d="M4198.35 1704.06C4206.78 1666.02 4241.32 1637.57 4278.52 1630.03 4312.03 1623.56 4348.55 1627.01 4378.27 1644.73 4385.35 1639.2 4393.65 1633.39 4403.2 1635.56 4413.19 1636.69 4421.24 1644.7 4423.15 1654.5 4426.22 1668.54 4424.5 1683.08 4425 1697.34 4424.75 1709.97 4426.16 1723.92 4418.7 1734.94 4409.15 1748.54 4385.25 1747.47 4377.39 1732.77 4372.32 1721.78 4372.6 1708.18 4363.61 1699.16 4350.08 1685.88 4330.79 1679.66 4312.13 1679.47 4295.5 1679.34 4277.71 1682.2 4264.68 1693.32 4255.22 1700.86 4246.58 1712.32 4249.18 1725.14 4252.12 1740.56 4266 1751.15 4280.53 1754.95 4315.07 1764.47 4351.4 1767.73 4384.69 1781.71 4401.23 1788.84 4415.73 1801.03 4424.78 1816.73 4437.37 1837.75 4438.65 1864.16 4432.17 1887.41 4423.96 1913.89 4400.19 1932.14 4375.48 1942.32 4329.89 1960.16 4277.24 1954.85 4234.18 1932.39 4228.32 1938.77 4221.43 1945.99 4211.91 1944.67 4199.57 1945.39 4188.96 1935.25 4187.36 1923.31 4185.07 1908.71 4186.45 1893.85 4186.07 1879.12 4186.11 1867.21 4186.29 1853.14 4196.28 1844.82 4205.74 1837.65 4220.77 1837.62 4229.58 1845.95 4239.57 1855.24 4237.22 1872.3 4249.18 1880.06 4283.1 1904.9 4332.48 1907.83 4368.22 1885.12 4379.46 1878.33 4387.29 1864.48 4382.66 1851.32 4377.96 1835.68 4361.55 1828.64 4347.17 1824.65 4312.1 1815.38 4274.55 1813.31 4241.98 1795.97 4209.72 1779.01 4190.37 1740.06 4198.35 1704.06Z" fill="#FFFFFF" fill-rule="evenodd"/><path d="M3257.66 1647.66C3263.64 1637.06 3277.16 1635.12 3288.26 1635.02 3339.67 1634.93 3391.08 1635.18 3442.5 1635.15 3453.79 1635.18 3466.37 1635.18 3475.61 1642.73 3485.58 1652.45 3485.36 1670.48 3475.42 1680.14 3468.19 1686.32 3458.19 1687.13 3449.13 1687.48 3431.15 1687.82 3413.19 1687.73 3395.24 1687.98 3395.2 1756.08 3395.24 1824.16 3395.2 1892.26 3412.09 1892.42 3428.98 1892.61 3445.86 1892.64 3456.02 1892.67 3467.12 1893.58 3475.39 1900.22 3485.89 1910.16 3485.61 1929.67 3474.01 1938.67 3465.86 1944.56 3455.33 1944.78 3445.74 1944.97 3395.36 1945 3345.02 1944.94 3294.67 1945 3284.7 1944.84 3274.01 1945.16 3265.11 1939.98 3251.59 1931.74 3250.43 1910.38 3262.06 1900.04 3269.39 1894.05 3279.3 1892.92 3288.45 1892.67 3306.24 1892.35 3324.07 1892.39 3341.94 1892.23 3341.94 1824.13 3341.94 1756.05 3341.94 1687.98 3319.29 1687.04 3296.43 1689.08 3273.95 1685.97 3256.65 1683.62 3248.82 1661.7 3257.66 1647.66Z" fill="#FFFFFF" fill-rule="evenodd"/><path d="M3565.01 1641.52C3573.88 1634.87 3585.53 1635.13 3596.1 1635 3634.87 1635.13 3673.61 1635.09 3712.38 1635.25 3735.83 1635.31 3760 1639.55 3780.27 1651.9 3801.76 1665.1 3819.26 1686.1 3825.11 1710.93 3833.04 1742.28 3824.61 1778.24 3800.37 1800.53 3780.36 1818.69 3756 1834.02 3728.56 1837.03 3703.29 1840.04 3677.77 1838.31 3652.37 1838.78 3652.4 1856.62 3652.37 1874.43 3652.4 1892.27 3669.27 1892.46 3686.17 1892.61 3703.07 1892.64 3712.45 1892.71 3722.55 1893.33 3730.57 1898.82 3743.85 1908.1 3743.44 1931.14 3729.63 1939.7 3720.72 1945.16 3709.9 1944.81 3699.86 1945 3664.17 1944.94 3628.45 1945 3592.77 1944.97 3583.23 1944.72 3572.72 1944.53 3564.85 1938.45 3553.68 1929.39 3552.74 1910.01 3564 1900.64 3573.32 1891.8 3587.26 1893.18 3599.12 1892.2 3599.12 1824.11 3599.12 1756.05 3599.12 1687.95 3588.33 1687.11 3576.56 1688.27 3566.93 1682.47 3553.21 1673.81 3552.33 1651.43 3565.01 1641.52M3652.4 1688.01C3652.34 1720.71 3652.43 1753.38 3652.34 1786.08 3673.42 1785.99 3694.57 1787.43 3715.59 1785.3 3733.19 1783.54 3751.06 1776.93 3763.08 1763.54 3776.68 1750.12 3779.67 1726.7 3767.96 1711.21 3757.1 1695.35 3737.31 1688.45 3718.74 1687.89 3696.62 1687.2 3674.49 1688.05 3652.4 1688.01Z" fill="#FFFFFF" fill-rule="evenodd"/><path d="M3873.79 1642.2C3882.22 1635.16 3893.89 1635.47 3904.29 1635.22 3985.21 1635.22 4066.09 1635.06 4147 1635 4146.62 1662.09 4146.91 1689.18 4146.75 1716.27 4146.28 1724.97 4145.97 1734.77 4139.79 1741.6 4129.07 1755.07 4104.15 1752.19 4097.84 1735.75 4092.39 1720.53 4094.93 1703.99 4094.18 1688.14 4049.69 1688.27 4005.21 1688.18 3960.72 1688.21 3960.72 1713.26 3960.72 1738.31 3960.72 1763.37 3975.99 1763.37 3991.26 1763.37 4006.55 1763.37 4007.53 1753.56 4006.21 1742.29 4013.04 1734.24 4022.07 1722.78 4041.16 1721.75 4051.35 1732.24 4058.85 1740.66 4058.88 1752.69 4059.13 1763.37 4059.03 1782.09 4059.16 1800.82 4059.06 1819.58 4058.72 1829.16 4058.38 1840 4051.54 1847.51 4040.54 1859.54 4017.75 1856.82 4010.47 1842.03 4006.74 1834.11 4007.24 1825.06 4006.4 1816.54 3991.16 1816.54 3975.93 1816.54 3960.72 1816.54 3960.72 1841.78 3960.69 1866.99 3960.72 1892.24 3979.5 1892.49 3998.28 1892.45 4017.09 1892.74 4025.96 1893.14 4035.93 1894.33 4042.42 1901.1 4053.01 1911.21 4051.64 1930.75 4039.47 1939.12 4029.25 1945.97 4016.3 1944.6 4004.64 1944.91 3966.3 1944.38 3927.87 1945.85 3889.59 1944.16 3869.97 1944.38 3857.74 1919.45 3869.78 1904.14 3878.3 1891.92 3894.83 1893.02 3907.99 1892.14 3907.99 1824.15 3907.99 1756.16 3907.99 1688.14 3896.58 1687.11 3883.35 1688.83 3873.98 1681 3862.28 1671.61 3862.16 1651.69 3873.79 1642.2Z" fill="#FFFFFF" fill-rule="evenodd"/><path d="M1940.82 1614.85C1966.06 1611.81 1991.61 1613.88 2016.98 1613 2016.92 1650.23 2017.26 1687.47 2016.88 1724.7 2043.29 1709.88 2074.41 1702.64 2104.55 1707.56 2128.47 1710.63 2151.95 1722.32 2166.03 1742.29 2176.78 1756.58 2181.12 1774.6 2181.37 1792.25 2181.75 1825.56 2181.75 1858.91 2181.85 1892.26 2190.8 1893.17 2200.52 1892.35 2208.66 1896.96 2221.29 1904.98 2223.68 1924.29 2214.25 1935.61 2207.06 1943.35 2195.83 1944.79 2185.81 1944.85 2166.85 1945.04 2147.93 1944.85 2128.97 1944.95 2118.57 1944.79 2107 1944.79 2098.61 1937.71 2087.17 1928.15 2087.7 1908.34 2099.21 1899.06 2107.03 1891.6 2118.82 1893.17 2128.75 1892.13 2128.79 1860.6 2128.91 1829.04 2128.72 1797.51 2128.63 1785.66 2125.99 1771.65 2114.45 1765.64 2093.71 1754.57 2066.58 1756.05 2046.9 1768.87 2036.22 1776.58 2025.28 1784.6 2017.1 1795 2016.57 1827.44 2017.1 1859.91 2016.95 1892.39 2027.41 1893.33 2040.27 1891.76 2047.94 1900.63 2058.31 1910.22 2057.9 1929.02 2046.97 1938.05 2037.22 1945.51 2024.3 1944.76 2012.7 1944.98 1992.77 1944.63 1972.85 1945.51 1952.92 1944.48 1943.68 1943.85 1933.18 1940.37 1928.71 1931.63 1923.02 1920.91 1925.04 1906.18 1934.97 1898.59 1943.02 1891.76 1954.3 1892.95 1964.11 1892.26 1964.01 1816.88 1964.08 1741.53 1964.11 1666.16 1950.5 1665.37 1933.15 1667 1924.47 1654.12 1913.97 1639.95 1922.99 1617.04 1940.82 1614.85Z" fill="#FFFFFF" fill-rule="evenodd"/><path d="M2655 1613C2675.98 1613.06 2696.99 1613.06 2718 1613 2717.78 1631.65 2717.91 1650.29 2717.94 1668.94 2696.99 1669.03 2676.04 1669 2655.09 1668.97 2655.06 1650.32 2655.22 1631.65 2655 1613Z" fill="#FFFFFF" fill-rule="evenodd"/><path d="M1100.42 1630C1131.77 1623.31 1165.5 1627.8 1193.55 1643.54 1233.66 1666.36 1264.09 1706.61 1272.51 1752.29 1280.17 1795.06 1275.93 1841.69 1252.66 1879.2 1232.71 1911.28 1201.9 1937.83 1165.12 1948.2 1130.83 1957.47 1092.57 1953.45 1061.98 1934.91 1024.98 1913.39 996.776 1876.81 987.166 1834.9 976.895 1790.09 981.449 1740.57 1005.26 1700.67 1026.55 1666.42 1060.6 1638.86 1100.42 1630M1109.31 1681.91C1078.53 1690.08 1054.32 1715.34 1042.51 1744.31 1032.24 1771.71 1031.83 1802.57 1040.53 1830.44 1049.29 1856.7 1068.54 1879.52 1093.23 1892.15 1116.94 1904.24 1146.56 1903.05 1169.52 1889.7 1194.96 1874.55 1214.5 1849.04 1220.5 1819.82 1226.62 1789.53 1224.17 1756.31 1208.4 1729.23 1188.93 1695.67 1148.76 1670.85 1109.31 1681.91Z" fill="#FFFFFF" fill-rule="evenodd"/><path d="M1389.72 1730.01C1429.38 1697.22 1495.55 1697.19 1531.91 1735.02 1546.26 1750.01 1552.95 1770.81 1553.46 1791.28 1554.08 1824.85 1553.71 1858.43 1553.86 1892 1562.5 1893.44 1572.61 1893.72 1578.99 1900.7 1590.54 1912.06 1587.53 1934.68 1572.08 1941.12 1557.29 1946.97 1540.96 1944.22 1525.48 1944.85 1510.4 1944.28 1494.1 1947.04 1480.16 1939.97 1466.62 1932.33 1464.77 1911.74 1475.32 1900.89 1481.67 1893.72 1491.9 1893.53 1500.6 1891.91 1500.6 1858.43 1501.2 1824.95 1500.85 1791.47 1500.95 1781.61 1496.96 1771.13 1487.98 1766.15 1472.97 1757.3 1454.28 1757.17 1437.64 1760.52 1417.38 1765.15 1402.97 1781.23 1389.09 1795.44 1389.31 1827.7 1389.4 1859.96 1389.34 1892.22 1399.64 1893.34 1411.83 1891.87 1419.9 1899.79 1432.93 1911.18 1429.41 1936.15 1412.39 1941.75 1396.28 1947.04 1379.01 1944.1 1362.36 1944.85 1345.82 1944.1 1328.48 1947.13 1312.53 1941.44 1296.57 1935.21 1293.09 1911.81 1305.43 1900.48 1313.09 1891.5 1326.09 1893.53 1336.58 1892.06 1336.58 1849.98 1336.58 1807.89 1336.58 1765.84 1327.26 1764.65 1316.33 1763.9 1310.14 1755.8 1298.02 1742.81 1304.87 1718.37 1322.8 1714.99 1344.78 1711.36 1367.23 1713.96 1389.4 1713.18 1389.5 1718.78 1389.62 1724.41 1389.72 1730.01Z" fill="#FFFFFF" fill-rule="evenodd"/><path d="M1729.59 1709.39C1766.1 1702.3 1805 1706.25 1838.81 1721.99 1847.65 1713.19 1862.49 1709.93 1872.9 1718 1884.13 1726.04 1883.63 1741.48 1883.85 1753.86 1883.22 1769.31 1885.51 1785.23 1881.31 1800.33 1875.76 1820.71 1842.35 1822.59 1834.45 1803.12 1830.37 1792.23 1829.15 1778.98 1818.36 1772.19 1799.01 1759.76 1774.95 1757.4 1752.49 1758.85 1729.88 1760.39 1707.79 1771.63 1694.81 1790.5 1683.71 1805.92 1679.88 1825.79 1681.89 1844.51 1683.8 1865.23 1697.85 1884.36 1717.14 1892.14 1740.13 1901.85 1765.66 1901.97 1790.19 1900.94 1810.92 1899.68 1833.48 1896.7 1849.47 1882.06 1857.19 1875 1867.7 1868.22 1878.58 1872.24 1896.11 1877.01 1902.83 1900.84 1891.22 1914.59 1872.15 1938.27 1840.72 1947.13 1811.83 1951.4 1774.35 1955.63 1734.86 1956.07 1699.26 1942.04 1665.01 1928.57 1638.04 1897.26 1631.32 1860.84 1625.74 1829.31 1629.98 1795.24 1646.63 1767.58 1664.35 1737.5 1695.37 1715.96 1729.59 1709.39Z" fill="#FFFFFF" fill-rule="evenodd"/><path d="M2305.12 1717.69C2343.58 1707.82 2384.62 1700.88 2423.81 1710.87 2447.51 1716.74 2470.23 1732.23 2479.36 1755.55 2485.09 1768.81 2484.64 1783.57 2484.71 1797.71 2484.77 1829.32 2484.74 1860.89 2484.77 1892.5 2498.52 1893.35 2516.24 1891.75 2524.9 1905.04 2534.65 1919.11 2526.09 1941.07 2508.85 1943.78 2483.35 1947.33 2457.42 1944.69 2431.74 1945.44 2431.74 1942.46 2431.77 1936.49 2431.8 1933.5 2399.54 1948.99 2363 1956.97 2327.25 1952.98 2297.92 1949.71 2269.28 1932.97 2255.62 1906.29 2246.21 1887.66 2249.26 1864.91 2260.02 1847.51 2273.84 1825.7 2295.34 1808.93 2319.88 1800.85 2356.05 1788.79 2395.07 1791.9 2432.15 1797.43 2433.31 1784.7 2431.42 1768.62 2417.67 1763.43 2389 1753.54 2358.03 1760.01 2329.23 1766.1 2316.45 1768.46 2302.51 1774.3 2289.92 1768.18 2277.24 1762.3 2273.12 1745.52 2278.25 1733.27 2283.28 1723.15 2295.15 1720.45 2305.12 1717.69M2331.88 1853.73C2319.95 1859.45 2304.93 1867.24 2304.21 1882.19 2306.19 1894.54 2320.83 1898.5 2331.43 1900.45 2366.72 1904.72 2402.38 1892.75 2432.02 1874.15 2431.9 1866.64 2431.9 1859.13 2431.99 1851.62 2399.23 1845.66 2363.44 1840 2331.88 1853.73Z" fill="#FFFFFF" fill-rule="evenodd"/><path d="M2960.74 1729.8C2979.39 1714.45 3003.29 1705.99 3027.5 1706.06 3056.38 1705.15 3087 1715.17 3105.74 1738.01 3119.02 1753.58 3124.42 1774.29 3124.58 1794.4 3124.92 1826.92 3124.77 1859.47 3124.86 1891.98 3133.46 1893.42 3143.51 1893.71 3149.89 1900.63 3160.97 1911.47 3158.96 1932.83 3144.86 1940.29 3130.89 1947.09 3114.75 1944.3 3099.77 1944.89 3084.3 1944.27 3067.97 1947.03 3053.27 1941.04 3038.08 1934.59 3035.16 1912.38 3046.27 1900.94 3052.58 1893.74 3062.85 1893.52 3071.61 1891.89 3071.61 1858.34 3072.24 1824.76 3071.86 1791.2 3071.92 1781.46 3068 1771.09 3059.18 1766.08 3044.11 1757.12 3025.33 1756.96 3008.59 1760.38 2988.37 1765.01 2973.96 1781.08 2960.12 1795.34 2960.34 1827.61 2960.43 1859.9 2960.37 1892.2 2970.01 1893.36 2981.09 1891.86 2989.22 1898.34 3002.41 1907.93 3001.97 1930.74 2988.12 1939.51 2978.2 1945.4 2966.24 1944.8 2955.16 1944.93 2937.42 1944.74 2919.64 1945.15 2901.94 1944.77 2892.83 1944.39 2882.53 1943.3 2876 1936.25 2866.39 1926.91 2866.8 1909.62 2876.44 1900.5 2884.07 1891.48 2897.1 1893.52 2907.62 1892.05 2907.62 1849.91 2907.62 1807.78 2907.62 1765.64 2898.26 1764.48 2887.37 1763.73 2881.18 1755.62 2869.09 1742.68 2875.84 1718.34 2893.68 1714.83 2915.66 1711.1 2938.2 1713.73 2960.43 1712.95 2960.52 1718.56 2960.62 1724.2 2960.74 1729.8Z" fill="#FFFFFF" fill-rule="evenodd"/><path d="M2594.86 1738.18C2594.29 1723.84 2608.03 1713.63 2621.52 1713.6 2656.04 1712.41 2690.62 1713.41 2725.14 1713.1 2725.17 1772.82 2725.14 1832.57 2725.17 1892.29 2745.26 1892.48 2765.32 1892.67 2785.44 1892.67 2795.56 1892.76 2806.79 1893.17 2815.06 1899.87 2825.9 1909.83 2825.87 1929.91 2813.55 1938.67 2805.44 1944.56 2795.03 1944.78 2785.44 1944.97 2729.83 1944.97 2674.21 1944.91 2618.63 1945 2606.96 1944.69 2594.01 1945.94 2583.92 1938.99 2571.12 1930.12 2570.71 1909.11 2582.66 1899.34 2589.99 1893.33 2600.11 1893.08 2609.16 1892.7 2630.13 1892.45 2651.1 1892.36 2672.1 1892.29 2672.1 1850.11 2672.1 1807.93 2672.1 1765.74 2653.68 1764.93 2635.13 1766.53 2616.83 1764.24 2604.2 1762.74 2593.6 1751.09 2594.86 1738.18Z" fill="#FFFFFF" fill-rule="evenodd"/><path d="M222 1986.75 565.5 2185 909 1986.75 909 1590.25 565.5 1392 222 1590.25Z" fill="#FFFFFF" fill-rule="evenodd"/><path d="M656 1677 516 1677 516 1900 562.092 1900 562.092 1801.76 649.662 1801.76 649.662 1768.33 561.803 1768.33 561.803 1711 652.831 1711Z" fill-rule="evenodd"/><path d="M807.214 1721.39 819.328 1690.57C801.446 1677.61 776.929 1673 746.354 1673 701.649 1673 665.017 1693.74 665.017 1736.37 665.017 1774.68 693.286 1789.65 721.262 1798.87L749.527 1808.37C768.851 1815 784.717 1821.34 784.717 1842.07 784.717 1861.08 768.277 1868.57 743.181 1868.57 717.8 1868.57 690.687 1861.08 675.114 1851.29L663 1884.7C683.188 1897.66 708.859 1904 743.181 1904 792.216 1904 830.001 1882.4 830.001 1836.89 830.001 1794.26 797.409 1780.72 764.525 1769.78L733.954 1759.7C720.684 1755.38 710.59 1749.33 710.59 1732.33 710.59 1715.05 724.724 1708.14 746.068 1708.14 772.024 1707.28 792.216 1712.17 807.214 1721.39Z" fill-rule="evenodd"/><path d="M301 1790.5C301 1728.92 344.876 1679 399 1679 453.124 1679 497 1728.92 497 1790.5 497 1852.08 453.124 1902 399 1902 344.876 1902 301 1852.08 301 1790.5ZM350 1790.5C350 1825.02 371.938 1853 399 1853 426.062 1853 448 1825.02 448 1790.5 448 1755.98 426.062 1728 399 1728 371.938 1728 350 1755.98 350 1790.5Z" fill-rule="evenodd"/></g></svg>